<?xml version="1.0" standalone="no"?><!DOCTYPE svg PUBLIC "-//W3C//DTD SVG 1.1//EN" "http://www.w3.org/Graphics/SVG/1.1/DTD/svg11.dtd"><svg t="1656126599224" class="icon" viewBox="0 0 1024 1024" version="1.1" xmlns="http://www.w3.org/2000/svg" p-id="7055" xmlns:xlink="http://www.w3.org/1999/xlink" width="200" height="200"><defs><style type="text/css"></style></defs><path d="M910.9 958.5H278.3c-29.9 0-54.2-24.3-54.2-54.2v-787c0-29.9 24.3-54.2 54.2-54.2h491.3c10 0 18.1 8.1 18.1 18.1v135.6H947c10 0 18.1 8.1 18.1 18.1v669.4c0 29.8-24.3 54.2-54.2 54.2zM278.3 99.3c-10 0-18.1 8.1-18.1 18.1v786.9c0 10 8.1 18.1 18.1 18.1h632.6c10 0 18.1-8.1 18.1-18.1V252.9H769.5c-10 0-18.1-8.1-18.1-18.1V99.3H278.3z" fill="#295497" p-id="7056"></path><path d="M947.4 253H769.9c-10 0-18.1-8.1-18.1-18.1V81.2c0-7.1 4.1-13.5 10.6-16.4 6.4-2.9 14-1.9 19.3 2.8L801.9 85c0.2 0.1 0.3 0.3 0.5 0.4l156.9 135.8c5.7 4.9 7.7 12.9 5.1 20-2.7 7.1-9.4 11.8-17 11.8zM788 216.8h111l-111-96.1v96.1zM664.5 781.5H79.4c-11.4 0-20.7-9.3-20.7-20.7V490.6c0-11.4 9.3-20.7 20.7-20.7h585.2c11.4 0 20.7 9.3 20.7 20.7v270.2c-0.1 11.4-9.4 20.7-20.8 20.7z" fill="#295497" p-id="7057"></path><path d="M97.6 525.2h55.2c61.4 0 99.5 31.8 99.5 99.7 0 67.7-38 101.4-97.3 101.4H97.6V525.2zM150.3 694c37.5 0 60.9-20.1 60.9-69 0-49.2-23.4-67.7-60.9-67.7h-12.5V694h12.5zM281.5 625c0-65.5 36.7-103.5 89.9-103.5s89.9 38.3 89.9 103.5-36.7 105.2-89.9 105.2-89.9-40-89.9-105.2z m138.9 0c0-43.2-19-69-48.9-69s-48.9 25.8-48.9 69c0 42.9 19 70.4 48.9 70.4 29.9-0.1 48.9-27.5 48.9-70.4zM490.8 626.6c0-66.3 42.7-105.2 93.5-105.2 25.5 0 45.9 12.2 59 25.8L622 572.8c-10.1-9.8-21.7-16.8-37-16.8-30.4 0-53.3 26.1-53.3 69.3 0 43.8 20.7 70.1 52.4 70.1 17.1 0 30.7-8.2 41.6-19.8l21.2 25c-16.6 19.3-38 29.6-64.1 29.6-50.7-0.1-92-36.5-92-103.6z" fill="#FFFFFF" p-id="7058"></path></svg>