<?xml version="1.0" standalone="no"?><!DOCTYPE svg PUBLIC "-//W3C//DTD SVG 1.1//EN" "http://www.w3.org/Graphics/SVG/1.1/DTD/svg11.dtd"><svg t="1656126498345" class="icon" viewBox="0 0 1024 1024" version="1.1" xmlns="http://www.w3.org/2000/svg" p-id="3696" xmlns:xlink="http://www.w3.org/1999/xlink" width="200" height="200"><defs><style type="text/css"></style></defs><path d="M910.9 958.5H278.3c-29.9 0-54.2-24.3-54.2-54.2v-787c0-29.9 24.3-54.2 54.2-54.2h491.3c10 0 18.1 8.1 18.1 18.1v135.6H947c10 0 18.1 8.1 18.1 18.1v669.4c0 29.8-24.3 54.2-54.2 54.2zM278.3 99.3c-10 0-18.1 8.1-18.1 18.1v786.9c0 10 8.1 18.1 18.1 18.1h632.6c10 0 18.1-8.1 18.1-18.1V252.9H769.5c-10 0-18.1-8.1-18.1-18.1V99.3H278.3z" fill="#E00C3C" p-id="3697"></path><path d="M947.4 253H769.9c-10 0-18.1-8.1-18.1-18.1V81.2c0-7.1 4.1-13.5 10.6-16.4 6.4-2.9 14-1.9 19.3 2.8L801.9 85c0.2 0.1 0.3 0.3 0.5 0.4l156.9 135.8c5.7 4.9 7.7 12.9 5.1 20-2.7 7.1-9.4 11.8-17 11.8zM788 216.8h111l-111-96.1v96.1zM664.5 781.5H79.4c-11.4 0-20.7-9.3-20.7-20.7V490.6c0-11.4 9.3-20.7 20.7-20.7h585.2c11.4 0 20.7 9.3 20.7 20.7v270.2c-0.1 11.4-9.4 20.7-20.8 20.7z" fill="#E00C3C" p-id="3698"></path><path d="M113.9 521.7h68.3c46.1 0 81.5 16 81.5 65.2 0 47.5-35.7 68.8-80.4 68.8h-27.8v73.9h-41.6V521.7z m66.6 101.2c28.7 0 42.4-12.1 42.4-36 0-24.2-15.2-32.3-43.8-32.3h-23.6v68.3h25zM301.3 521.7h57c63.5 0 102.8 32.9 102.8 103.1 0 70-39.3 104.8-100.6 104.8h-59.3V521.7z m54.5 174.5c38.8 0 62.9-20.8 62.9-71.4 0-50.9-24.2-70-62.9-70h-12.9v141.3h12.9zM501.9 521.7H630v34.6h-86.5v54.2h73.9v34.8h-73.9v84.3h-41.6V521.7z" fill="#FFFFFF" p-id="3699"></path></svg>