<?xml version="1.0" standalone="no"?><!DOCTYPE svg PUBLIC "-//W3C//DTD SVG 1.1//EN" "http://www.w3.org/Graphics/SVG/1.1/DTD/svg11.dtd"><svg t="1656126622833" class="icon" viewBox="0 0 1024 1024" version="1.1" xmlns="http://www.w3.org/2000/svg" p-id="8813" xmlns:xlink="http://www.w3.org/1999/xlink" width="200" height="200"><defs><style type="text/css"></style></defs><path d="M910.9 958.5H278.3c-29.9 0-54.2-24.3-54.2-54.2v-787c0-29.9 24.3-54.2 54.2-54.2h491.3c10 0 18.1 8.1 18.1 18.1v135.6H947c10 0 18.1 8.1 18.1 18.1v669.4c0 29.8-24.3 54.2-54.2 54.2zM278.3 99.3c-10 0-18.1 8.1-18.1 18.1v786.9c0 10 8.1 18.1 18.1 18.1h632.6c10 0 18.1-8.1 18.1-18.1V252.9H769.5c-10 0-18.1-8.1-18.1-18.1V99.3H278.3z" fill="#D24625" p-id="8814"></path><path d="M947.4 253H769.9c-10 0-18.1-8.1-18.1-18.1V81.2c0-7.1 4.1-13.5 10.6-16.4 6.4-2.9 14-1.9 19.3 2.8L801.9 85c0.2 0.1 0.3 0.3 0.5 0.4l156.9 135.8c5.7 4.9 7.7 12.9 5.1 20-2.7 7.1-9.4 11.8-17 11.8zM788 216.8h111l-111-96.1v96.1zM664.5 781.5H79.4c-11.4 0-20.7-9.3-20.7-20.7V490.6c0-11.4 9.3-20.7 20.7-20.7h585.2c11.4 0 20.7 9.3 20.7 20.7v270.2c-0.1 11.4-9.4 20.7-20.8 20.7z" fill="#D24625" p-id="8815"></path><path d="M114.9 521.8h68.3c46.1 0 81.5 16 81.5 65.2 0 47.5-35.7 68.8-80.4 68.8h-27.8v73.9h-41.6V521.8zM181.5 623c28.7 0 42.4-12.1 42.4-36 0-24.2-15.2-32.3-43.8-32.3h-23.6V623h25zM302.3 521.8h68.3c46.1 0 81.5 16 81.5 65.2 0 47.5-35.7 68.8-80.4 68.8h-27.8v73.9h-41.6V521.8zM368.9 623c28.7 0 42.4-12.1 42.4-36 0-24.2-15.2-32.3-43.8-32.3h-23.6V623h25zM525.7 556.4h-58.4v-34.6h159v34.6h-59v173.4h-41.6V556.4z" fill="#FFFFFF" p-id="8816"></path></svg>